<?xml version="1.0" standalone="no"?>
<!DOCTYPE svg PUBLIC "-//W3C//DTD SVG 20010904//EN"
 "http://www.w3.org/TR/2001/REC-SVG-20010904/DTD/svg10.dtd">
<svg version="1.0" xmlns="http://www.w3.org/2000/svg"
 width="512.000000pt" height="512.000000pt" viewBox="0 0 512.000000 512.000000"
 preserveAspectRatio="xMidYMid meet">

<g transform="translate(0.000000,512.000000) scale(0.100000,-0.100000)"
fill="#000000" stroke="none">
<path d="M2410 4786 c-340 -72 -586 -328 -640 -666 -6 -42 -10 -134 -8 -207 3
-143 10 -161 72 -207 39 -29 133 -29 172 0 64 47 68 61 75 237 5 130 10 172
26 214 63 160 180 267 340 308 257 67 533 -110 583 -374 5 -30 10 -204 10
-392 l0 -339 -827 -2 -828 -3 -57 -27 c-73 -34 -142 -104 -176 -176 -22 -48
-27 -75 -30 -164 l-4 -108 -28 0 c-35 0 -43 10 -133 174 l-77 139 38 75 c35
72 37 81 37 172 0 91 -2 100 -37 172 -45 91 -103 147 -196 191 -61 29 -76 32
-162 32 -86 0 -101 -3 -162 -32 -93 -44 -151 -100 -196 -191 -35 -72 -37 -81
-37 -172 0 -91 2 -100 37 -172 65 -131 181 -211 327 -226 l73 -7 88 -160 c52
-94 107 -180 134 -208 59 -62 138 -98 228 -105 l68 -5 0 -158 0 -159 -98 0
-97 0 -24 45 c-33 62 -99 121 -179 158 -61 29 -76 32 -163 32 -90 0 -99 -2
-171 -37 -91 -45 -147 -103 -191 -196 -29 -61 -32 -76 -32 -163 0 -90 2 -99
37 -171 45 -91 103 -147 196 -191 61 -29 76 -32 162 -32 86 0 101 3 162 32 80
37 146 96 179 158 l24 45 97 0 98 0 0 -159 0 -158 -68 -5 c-90 -7 -169 -43
-228 -105 -27 -28 -82 -114 -134 -208 l-88 -160 -73 -7 c-146 -15 -262 -95
-327 -226 -35 -72 -37 -81 -37 -172 0 -91 2 -100 37 -172 45 -91 103 -147 196
-191 98 -47 226 -47 324 0 93 44 151 100 196 191 35 72 37 81 37 172 0 91 -2
100 -37 172 l-38 75 77 139 c90 164 98 174 133 174 l28 0 4 -107 c3 -90 8
-117 30 -165 34 -72 103 -142 176 -176 l57 -27 1175 0 1175 0 57 27 c73 34
143 104 176 176 21 47 26 76 30 164 l5 108 27 0 c35 0 43 -10 133 -174 l77
-139 -38 -75 c-35 -72 -37 -81 -37 -172 0 -91 2 -100 37 -172 45 -91 103 -147
196 -191 61 -29 76 -32 162 -32 86 0 101 3 162 32 93 44 151 100 196 191 35
72 37 81 37 172 0 91 -2 100 -37 172 -65 131 -181 211 -327 226 l-73 7 -88
160 c-52 94 -107 180 -134 208 -59 62 -138 98 -228 105 l-68 5 0 158 0 159 98
0 97 0 24 -45 c33 -62 99 -121 179 -158 61 -29 76 -32 162 -32 86 0 101 3 162
32 93 44 151 100 196 191 35 72 37 81 37 172 0 91 -2 100 -37 172 -45 91 -103
147 -196 191 -61 29 -76 32 -162 32 -86 0 -101 -3 -162 -32 -80 -37 -146 -96
-179 -158 l-24 -45 -97 0 -98 0 0 159 0 158 70 6 c89 7 165 41 222 99 26 26
80 110 135 208 l91 165 73 7 c146 15 262 95 327 226 35 72 37 81 37 172 0 91
-2 100 -37 172 -45 91 -103 147 -196 191 -61 29 -76 32 -162 32 -86 0 -101 -3
-162 -32 -93 -44 -151 -100 -196 -191 -35 -72 -37 -81 -37 -172 0 -91 2 -100
37 -172 l38 -75 -77 -139 c-90 -164 -98 -174 -133 -174 l-27 0 -5 108 c-4 88
-9 117 -30 164 -33 72 -103 142 -176 176 -54 26 -66 27 -244 30 l-187 4 -3
386 c-4 410 -4 412 -58 554 -12 32 -43 91 -70 131 -112 173 -271 287 -480 344
-78 21 -260 26 -340 9z m-1795 -1291 c50 -49 15 -135 -55 -135 -41 0 -80 39
-80 80 0 41 39 80 80 80 19 0 40 -9 55 -25z m4000 0 c16 -15 25 -36 25 -55 0
-19 -9 -40 -25 -55 -15 -16 -36 -25 -55 -25 -19 0 -40 9 -55 25 -16 15 -25 36
-25 55 0 19 9 40 25 55 15 16 36 25 55 25 19 0 40 -9 55 -25z m-1940 -790
c256 -67 415 -329 350 -578 -34 -132 -126 -249 -240 -309 l-63 -32 -4 -123
c-3 -132 -10 -152 -72 -197 -39 -29 -133 -29 -172 0 -62 45 -69 65 -72 197
l-4 123 -63 32 c-114 60 -206 177 -240 309 -89 341 238 667 580 578z m-2060
-570 c50 -49 15 -135 -55 -135 -41 0 -80 39 -80 80 0 41 39 80 80 80 19 0 40
-9 55 -25z m4000 0 c50 -49 15 -135 -55 -135 -41 0 -80 39 -80 80 0 41 39 80
80 80 19 0 40 -9 55 -25z m-4000 -1360 c50 -49 15 -135 -55 -135 -41 0 -80 39
-80 80 0 41 39 80 80 80 19 0 40 -9 55 -25z m4000 0 c50 -49 15 -135 -55 -135
-41 0 -80 39 -80 80 0 41 39 80 80 80 19 0 40 -9 55 -25z"/>
<path d="M2495 2386 c-101 -44 -125 -178 -46 -257 65 -65 157 -65 222 0 124
124 -15 327 -176 257z"/>
</g>
</svg>
